<svg width="100" height="100" viewBox="0 0 100 100" xmlns="http://www.w3.org/2000/svg">
  <defs>
    <pattern id="dot-pattern" x="0" y="0" width="20" height="20" patternUnits="userSpaceOnUse">
      <circle cx="2" cy="2" r="1" fill="#2c8678" opacity="0.2" />
    </pattern>
    <pattern id="leaf-pattern" x="0" y="0" width="40" height="40" patternUnits="userSpaceOnUse">
      <path d="M20 5 Q25 10, 20 15 Q15 10, 20 5" fill="none" stroke="#2c8678" stroke-width="0.5" opacity="0.2" />
      <path d="M5 20 Q10 25, 15 20 Q10 15, 5 20" fill="none" stroke="#2c8678" stroke-width="0.5" opacity="0.2" />
      <path d="M20 25 Q25 30, 20 35 Q15 30, 20 25" fill="none" stroke="#2c8678" stroke-width="0.5" opacity="0.2" />
      <path d="M25 20 Q30 25, 35 20 Q30 15, 25 20" fill="none" stroke="#2c8678" stroke-width="0.5" opacity="0.2" />
    </pattern>
  </defs>
  <rect x="0" y="0" width="100" height="100" fill="url(#dot-pattern)" />
  <rect x="0" y="0" width="100" height="100" fill="url(#leaf-pattern)" />
</svg> 