<svg width="400" height="400" xmlns="http://www.w3.org/2000/svg">
  <rect width="100%" height="100%" fill="#111111"/>
  <rect x="50" y="75" width="300" height="250" rx="20" fill="#222222"/>
  
  <!-- נקודות עיצוב גלקסי -->
  <circle cx="80" cy="100" r="2" fill="white" opacity="0.8"/>
  <circle cx="120" cy="130" r="1.5" fill="white" opacity="0.7"/>
  <circle cx="200" cy="90" r="2.5" fill="white" opacity="0.9"/>
  <circle cx="250" cy="110" r="1" fill="white" opacity="0.6"/>
  <circle cx="300" cy="150" r="2" fill="white" opacity="0.8"/>
  <circle cx="100" cy="180" r="1.5" fill="white" opacity="0.7"/>
  <circle cx="170" cy="220" r="2" fill="white" opacity="0.8"/>
  <circle cx="270" cy="240" r="1.5" fill="white" opacity="0.7"/>
  <circle cx="220" cy="280" r="2" fill="white" opacity="0.9"/>
  <circle cx="90" cy="260" r="1" fill="white" opacity="0.6"/>
  <circle cx="310" cy="200" r="1.5" fill="white" opacity="0.7"/>
  <circle cx="150" cy="290" r="2" fill="white" opacity="0.8"/>
  
  <!-- אפקט הולוגרפי -->
  <path d="M100,200 Q150,100 200,180 T300,200" stroke="#8844cc" stroke-width="2" fill="none" opacity="0.4"/>
  <path d="M80,220 Q150,160 230,200 T320,180" stroke="#44aadd" stroke-width="1.5" fill="none" opacity="0.3"/>
  
  <text x="200" y="350" font-family="Arial" font-size="24" fill="#ffffff" text-anchor="middle">מגן אחורי גלקסי</text>
</svg> 