<svg width="400" height="400" xmlns="http://www.w3.org/2000/svg">
  <rect width="100%" height="100%" fill="#f0f0f0"/>
  <rect x="60" y="70" width="280" height="260" rx="20" fill="#222222"/>
  
  <!-- דוגמה של חורים במגן -->
  <circle cx="100" cy="110" r="8" fill="#000000"/>
  <circle cx="130" cy="110" r="8" fill="#000000"/>
  <circle cx="160" cy="110" r="8" fill="#000000"/>
  <circle cx="190" cy="110" r="8" fill="#000000"/>
  <circle cx="220" cy="110" r="8" fill="#000000"/>
  <circle cx="250" cy="110" r="8" fill="#000000"/>
  <circle cx="280" cy="110" r="8" fill="#000000"/>

  <circle cx="100" cy="140" r="8" fill="#000000"/>
  <circle cx="130" cy="140" r="8" fill="#000000"/>
  <circle cx="160" cy="140" r="8" fill="#000000"/>
  <circle cx="190" cy="140" r="8" fill="#000000"/>
  <circle cx="220" cy="140" r="8" fill="#000000"/>
  <circle cx="250" cy="140" r="8" fill="#000000"/>
  <circle cx="280" cy="140" r="8" fill="#000000"/>

  <circle cx="100" cy="170" r="8" fill="#000000"/>
  <circle cx="130" cy="170" r="8" fill="#000000"/>
  <circle cx="160" cy="170" r="8" fill="#000000"/>
  <circle cx="190" cy="170" r="8" fill="#000000"/>
  <circle cx="220" cy="170" r="8" fill="#000000"/>
  <circle cx="250" cy="170" r="8" fill="#000000"/>
  <circle cx="280" cy="170" r="8" fill="#000000"/>

  <circle cx="100" cy="200" r="8" fill="#000000"/>
  <circle cx="130" cy="200" r="8" fill="#000000"/>
  <circle cx="160" cy="200" r="8" fill="#000000"/>
  <circle cx="190" cy="200" r="8" fill="#000000"/>
  <circle cx="220" cy="200" r="8" fill="#000000"/>
  <circle cx="250" cy="200" r="8" fill="#000000"/>
  <circle cx="280" cy="200" r="8" fill="#000000"/>

  <circle cx="100" cy="230" r="8" fill="#000000"/>
  <circle cx="130" cy="230" r="8" fill="#000000"/>
  <circle cx="160" cy="230" r="8" fill="#000000"/>
  <circle cx="190" cy="230" r="8" fill="#000000"/>
  <circle cx="220" cy="230" r="8" fill="#000000"/>
  <circle cx="250" cy="230" r="8" fill="#000000"/>
  <circle cx="280" cy="230" r="8" fill="#000000"/>

  <circle cx="100" cy="260" r="8" fill="#000000"/>
  <circle cx="130" cy="260" r="8" fill="#000000"/>
  <circle cx="160" cy="260" r="8" fill="#000000"/>
  <circle cx="190" cy="260" r="8" fill="#000000"/>
  <circle cx="220" cy="260" r="8" fill="#000000"/>
  <circle cx="250" cy="260" r="8" fill="#000000"/>
  <circle cx="280" cy="260" r="8" fill="#000000"/>

  <text x="200" y="350" font-family="Arial" font-size="18" fill="#333" text-anchor="middle">מגן אחורי גלקסי</text>
</svg> 